<svg width="323" height="18" viewBox="0 0 323 18" fill="none" xmlns="http://www.w3.org/2000/svg">
<path d="M0.000951403 10.3037C-0.0100438 10.0838 0.0745962 9.86856 0.237543 9.70208C0.400489 9.53561 0.629362 9.43055 0.877228 9.40841C67.5221 3.38388 134.914 0.691338 201.947 0.0182052C241.884 -0.237585 282.575 2.19242 322.001 7.92077C322.289 7.96466 322.549 8.09949 322.732 8.30011C322.916 8.50073 323.011 8.75345 322.999 9.01124C322.993 9.12076 322.939 9.22382 322.847 9.29814C322.756 9.37245 322.635 9.41207 322.511 9.40841C215.236 7.53037 107.809 4.48107 0.6258 10.8287C0.547493 10.8333 0.468923 10.8239 0.39479 10.8011C0.320656 10.7784 0.252457 10.7427 0.194196 10.6963C0.135936 10.6498 0.088793 10.5936 0.0555995 10.5308C0.022406 10.4679 0.00383983 10.3999 0.000951403 10.3306V10.3037Z" fill="white"/>
<path d="M41.3396 16.8466C74.784 13.3127 108.746 12.1347 142.351 14.6455C143.448 14.7263 144.294 15.4936 142.008 15.5071C108.868 15.6619 74.7154 16.4966 41.5835 17.6678C39.488 17.7351 40.3795 16.9409 41.3396 16.8466Z" fill="white"/>
<path d="M148.02 14.154C150.423 13.8948 152.853 13.9084 155.252 14.1944C155.366 14.1593 155.489 14.1489 155.609 14.1642C155.729 14.1795 155.844 14.2199 155.943 14.2822C156.042 14.3444 156.122 14.4266 156.178 14.522C156.234 14.6174 156.263 14.7232 156.263 14.8305C156.263 14.9378 156.234 15.0436 156.178 15.1389C156.122 15.2343 156.042 15.3166 155.943 15.3788C155.844 15.441 155.729 15.4815 155.609 15.4968C155.489 15.512 155.366 15.5017 155.252 15.4666C152.874 15.6113 150.487 15.5978 148.112 15.4262C148 15.467 147.878 15.4835 147.758 15.4746C147.637 15.4656 147.52 15.4314 147.418 15.3747C147.315 15.3181 147.229 15.2405 147.167 15.1487C147.105 15.0568 147.069 14.9532 147.061 14.8465C147.053 14.7397 147.074 14.6329 147.123 14.5348C147.171 14.4367 147.245 14.3503 147.339 14.2826C147.433 14.2149 147.544 14.1679 147.662 14.1456C147.78 14.1232 147.903 14.1261 148.02 14.154Z" fill="white"/>
</svg>
