<svg width="740" height="49" viewBox="0 0 740 49" fill="none" xmlns="http://www.w3.org/2000/svg">
<path d="M0.00217969 28.101C-0.0230105 27.5045 0.170901 26.9204 0.544216 26.4688C0.91753 26.0171 1.44188 25.7321 2.00975 25.672C154.695 9.32696 309.09 2.02189 462.665 0.195632C554.161 -0.498347 647.385 6.09444 737.711 21.6359C738.37 21.755 738.966 22.1208 739.387 22.6651C739.807 23.2094 740.024 23.895 739.998 24.5945C739.984 24.8916 739.859 25.1712 739.65 25.3728C739.441 25.5745 739.165 25.6819 738.88 25.672C493.111 20.5767 246.993 12.3037 1.43372 29.5254C1.25432 29.5377 1.07431 29.5123 0.904472 29.4506C0.734631 29.3889 0.578384 29.2921 0.444908 29.1661C0.311432 29.0401 0.203427 28.8875 0.12738 28.717C0.0513326 28.5466 0.00879712 28.3619 0.00217969 28.174V28.101Z" fill="white"/>
<path d="M94.7099 45.8525C171.332 36.2647 249.14 33.0687 326.129 39.8806C328.643 40.0998 330.58 42.1818 325.343 42.2183C249.42 42.6383 171.174 44.9028 95.2685 48.0805C90.4677 48.2631 92.5102 46.1082 94.7099 45.8525Z" fill="white"/>
<path d="M339.117 38.5469C344.621 37.8437 350.189 37.8805 355.684 38.6564C355.947 38.5612 356.228 38.5332 356.504 38.5746C356.779 38.6161 357.041 38.7258 357.268 38.8946C357.495 39.0635 357.68 39.2866 357.807 39.5454C357.935 39.8042 358.001 40.0911 358.001 40.3823C358.001 40.6734 357.935 40.9604 357.807 41.2192C357.68 41.4779 357.495 41.701 357.268 41.8699C357.041 42.0388 356.779 42.1485 356.504 42.1899C356.228 42.2314 355.947 42.2033 355.684 42.1081C350.237 42.5008 344.769 42.4642 339.327 41.9985C339.07 42.1091 338.792 42.154 338.516 42.1297C338.239 42.1054 337.972 42.0126 337.737 41.8589C337.502 41.7051 337.305 41.4948 337.163 41.2456C337.02 40.9963 336.937 40.7153 336.92 40.4256C336.902 40.136 336.951 39.8461 337.061 39.58C337.172 39.314 337.342 39.0794 337.557 38.8958C337.772 38.7121 338.025 38.5847 338.297 38.524C338.568 38.4633 338.849 38.4712 339.117 38.5469Z" fill="white"/>
</svg>
