<svg width="25" height="25" viewBox="0 0 25 25" fill="none" xmlns="http://www.w3.org/2000/svg">
<path d="M4.35 7.38667L11.2533 3.35833L10.4133 1.91833L3.50833 5.94667L4.35 7.38667ZM3.33333 15.8333V9.16667H1.66667V15.8333H3.33333ZM13.7467 3.35833L20.6517 7.38667L21.4917 5.94667L14.5867 1.91833L13.7467 3.35833ZM21.6667 9.16667V15.8333H23.3333V9.16667H21.6667ZM21.2467 17.2667L13.7467 21.6417L14.5867 23.0817L22.0867 18.7067L21.2467 17.2667ZM11.2533 21.6417L4.34833 17.6133L3.50833 19.0533L10.4133 23.0817L11.2533 21.6417ZM10.9733 3.28833L2.64 15.7883L4.02667 16.7117L12.36 4.21167L10.9733 3.28833ZM22.36 15.7883L14.0267 3.28833L12.64 4.21167L20.9733 16.7117L22.36 15.7883ZM4.16667 18.3333H20.8333V16.6667H4.16667V18.3333ZM12.5 3.33333C12.279 3.33333 12.067 3.24554 11.9107 3.08926C11.7545 2.93298 11.6667 2.72101 11.6667 2.5H10C10 3.16304 10.2634 3.79893 10.7322 4.26777C11.2011 4.73661 11.837 5 12.5 5V3.33333ZM13.3333 2.5C13.3333 2.72101 13.2455 2.93298 13.0893 3.08926C12.933 3.24554 12.721 3.33333 12.5 3.33333V5C13.163 5 13.7989 4.73661 14.2678 4.26777C14.7366 3.79893 15 3.16304 15 2.5H13.3333ZM12.5 1.66667C12.721 1.66667 12.933 1.75446 13.0893 1.91074C13.2455 2.06702 13.3333 2.27899 13.3333 2.5H15C15 1.83696 14.7366 1.20107 14.2678 0.732233C13.7989 0.263392 13.163 0 12.5 0V1.66667ZM12.5 0C11.837 0 11.2011 0.263392 10.7322 0.732233C10.2634 1.20107 10 1.83696 10 2.5H11.6667C11.6667 2.27899 11.7545 2.06702 11.9107 1.91074C12.067 1.75446 12.279 1.66667 12.5 1.66667V0ZM22.5 8.33333C22.279 8.33333 22.067 8.24554 21.9107 8.08926C21.7545 7.93297 21.6667 7.72101 21.6667 7.5H20C20 8.16304 20.2634 8.79893 20.7322 9.26777C21.2011 9.73661 21.837 10 22.5 10V8.33333ZM23.3333 7.5C23.3333 7.72101 23.2455 7.93297 23.0893 8.08926C22.933 8.24554 22.721 8.33333 22.5 8.33333V10C23.163 10 23.7989 9.73661 24.2678 9.26777C24.7366 8.79893 25 8.16304 25 7.5H23.3333ZM22.5 6.66667C22.721 6.66667 22.933 6.75446 23.0893 6.91074C23.2455 7.06702 23.3333 7.27899 23.3333 7.5H25C25 6.83696 24.7366 6.20107 24.2678 5.73223C23.7989 5.26339 23.163 5 22.5 5V6.66667ZM22.5 5C21.837 5 21.2011 5.26339 20.7322 5.73223C20.2634 6.20107 20 6.83696 20 7.5H21.6667C21.6667 7.27899 21.7545 7.06702 21.9107 6.91074C22.067 6.75446 22.279 6.66667 22.5 6.66667V5ZM22.5 18.3333C22.279 18.3333 22.067 18.2455 21.9107 18.0893C21.7545 17.933 21.6667 17.721 21.6667 17.5H20C20 18.163 20.2634 18.7989 20.7322 19.2678C21.2011 19.7366 21.837 20 22.5 20V18.3333ZM23.3333 17.5C23.3333 17.721 23.2455 17.933 23.0893 18.0893C22.933 18.2455 22.721 18.3333 22.5 18.3333V20C23.163 20 23.7989 19.7366 24.2678 19.2678C24.7366 18.7989 25 18.163 25 17.5H23.3333ZM22.5 16.6667C22.721 16.6667 22.933 16.7545 23.0893 16.9107C23.2455 17.067 23.3333 17.279 23.3333 17.5H25C25 16.837 24.7366 16.2011 24.2678 15.7322C23.7989 15.2634 23.163 15 22.5 15V16.6667ZM22.5 15C21.837 15 21.2011 15.2634 20.7322 15.7322C20.2634 16.2011 20 16.837 20 17.5H21.6667C21.6667 17.279 21.7545 17.067 21.9107 16.9107C22.067 16.7545 22.279 16.6667 22.5 16.6667V15ZM12.5 23.3333C12.279 23.3333 12.067 23.2455 11.9107 23.0893C11.7545 22.933 11.6667 22.721 11.6667 22.5H10C10 23.163 10.2634 23.7989 10.7322 24.2678C11.2011 24.7366 11.837 25 12.5 25V23.3333ZM13.3333 22.5C13.3333 22.721 13.2455 22.933 13.0893 23.0893C12.933 23.2455 12.721 23.3333 12.5 23.3333V25C13.163 25 13.7989 24.7366 14.2678 24.2678C14.7366 23.7989 15 23.163 15 22.5H13.3333ZM12.5 21.6667C12.721 21.6667 12.933 21.7545 13.0893 21.9107C13.2455 22.067 13.3333 22.279 13.3333 22.5H15C15 21.837 14.7366 21.2011 14.2678 20.7322C13.7989 20.2634 13.163 20 12.5 20V21.6667ZM12.5 20C11.837 20 11.2011 20.2634 10.7322 20.7322C10.2634 21.2011 10 21.837 10 22.5H11.6667C11.6667 22.279 11.7545 22.067 11.9107 21.9107C12.067 21.7545 12.279 21.6667 12.5 21.6667V20ZM2.5 18.3333C2.27899 18.3333 2.06702 18.2455 1.91074 18.0893C1.75446 17.933 1.66667 17.721 1.66667 17.5H0C0 18.163 0.263392 18.7989 0.732233 19.2678C1.20107 19.7366 1.83696 20 2.5 20V18.3333ZM3.33333 17.5C3.33333 17.721 3.24554 17.933 3.08926 18.0893C2.93298 18.2455 2.72101 18.3333 2.5 18.3333V20C3.16304 20 3.79893 19.7366 4.26777 19.2678C4.73661 18.7989 5 18.163 5 17.5H3.33333ZM2.5 16.6667C2.72101 16.6667 2.93298 16.7545 3.08926 16.9107C3.24554 17.067 3.33333 17.279 3.33333 17.5H5C5 16.837 4.73661 16.2011 4.26777 15.7322C3.79893 15.2634 3.16304 15 2.5 15V16.6667ZM2.5 15C1.83696 15 1.20107 15.2634 0.732233 15.7322C0.263392 16.2011 0 16.837 0 17.5H1.66667C1.66667 17.279 1.75446 17.067 1.91074 16.9107C2.06702 16.7545 2.27899 16.6667 2.5 16.6667V15ZM2.5 8.33333C2.27899 8.33333 2.06702 8.24554 1.91074 8.08926C1.75446 7.93297 1.66667 7.72101 1.66667 7.5H0C0 8.16304 0.263392 8.79893 0.732233 9.26777C1.20107 9.73661 1.83696 10 2.5 10V8.33333ZM3.33333 7.5C3.33333 7.72101 3.24554 7.93297 3.08926 8.08926C2.93298 8.24554 2.72101 8.33333 2.5 8.33333V10C3.16304 10 3.79893 9.73661 4.26777 9.26777C4.73661 8.79893 5 8.16304 5 7.5H3.33333ZM2.5 6.66667C2.72101 6.66667 2.93298 6.75446 3.08926 6.91074C3.24554 7.06702 3.33333 7.27899 3.33333 7.5H5C5 6.83696 4.73661 6.20107 4.26777 5.73223C3.79893 5.26339 3.16304 5 2.5 5V6.66667ZM2.5 5C1.83696 5 1.20107 5.26339 0.732233 5.73223C0.263392 6.20107 0 6.83696 0 7.5H1.66667C1.66667 7.27899 1.75446 7.06702 1.91074 6.91074C2.06702 6.75446 2.27899 6.66667 2.5 6.66667V5Z" fill="#EEEEEE"/>
</svg>
