<svg width="26" height="27" viewBox="0 0 26 27" fill="none" xmlns="http://www.w3.org/2000/svg">
<path d="M14.885 4.75873C13.975 3.63373 13.1841 2.50873 13.0325 2.26123H13C12.8483 2.49748 12.0575 3.63373 11.1475 4.75873C3.34747 15.0975 12.3825 22.0725 12.3825 22.0725L12.4583 22.1287C12.5233 23.1975 12.6966 24.75 12.6966 24.75H13.3683C13.3683 24.75 13.5308 23.2087 13.5958 22.1287L13.6716 22.0612C13.6716 22.0612 22.685 15.0975 14.885 4.75873ZM13 21.915C12.8101 21.753 12.6359 21.5721 12.48 21.375L13 10.125L13.4875 21.375C13.3413 21.5702 13.1781 21.7509 13 21.915Z" fill="#EEEEEE"/>
</svg>
