<svg width="31" height="25" viewBox="0 0 31 25" fill="none" xmlns="http://www.w3.org/2000/svg">
<path fill-rule="evenodd" clip-rule="evenodd" d="M27 6.69668L15.5 0L4 6.69668V18.3033L5.77985 19.3397L9.41915 17.8708C9.9089 17.6729 10.3283 17.3336 10.6236 16.8964C10.919 16.4592 11.0768 15.9439 11.0769 15.4167V6.32062H12.8462V15.4167C12.846 16.2956 12.5829 17.1545 12.0906 17.8833C11.5982 18.6121 10.8991 19.1776 10.0826 19.5074L7.71185 20.4643L15.5 25L27 18.3051V6.69668ZM14.6154 9.8517C14.6154 8.9152 14.9882 8.01705 15.6518 7.35485C16.3154 6.69264 17.2154 6.32062 18.1538 6.32062H20.2185C22.009 6.32062 23.4615 7.76836 23.4615 9.55685V9.8517H21.6923V9.55685C21.6923 9.36372 21.6542 9.17247 21.5801 8.99404C21.5061 8.81561 21.3975 8.65348 21.2606 8.51691C21.1238 8.38035 20.9613 8.27202 20.7825 8.19811C20.6037 8.1242 20.4121 8.08616 20.2185 8.08616H18.1538C17.6846 8.08616 17.2346 8.27217 16.9028 8.60327C16.571 8.93437 16.3846 9.38345 16.3846 9.8517C16.3846 10.3199 16.571 10.769 16.9028 11.1001C17.2346 11.4312 17.6846 11.6172 18.1538 11.6172H19.9231C20.8615 11.6172 21.7616 11.9893 22.4251 12.6515C23.0887 13.3137 23.4615 14.2118 23.4615 15.1483C23.4615 16.0848 23.0887 16.9829 22.4251 17.6452C21.7616 18.3074 20.8615 18.6794 19.9231 18.6794H18.1538C17.2154 18.6794 16.3154 18.3074 15.6518 17.6452C14.9882 16.9829 14.6154 16.0848 14.6154 15.1483H16.3846C16.3846 15.6166 16.571 16.0656 16.9028 16.3967C17.2346 16.7278 17.6846 16.9138 18.1538 16.9138H19.9231C20.3923 16.9138 20.8423 16.7278 21.1741 16.3967C21.5059 16.0656 21.6923 15.6166 21.6923 15.1483C21.6923 14.6801 21.5059 14.231 21.1741 13.8999C20.8423 13.5688 20.3923 13.3828 19.9231 13.3828H18.1538C17.2154 13.3828 16.3154 13.0107 15.6518 12.3485C14.9882 11.6863 14.6154 10.7882 14.6154 9.8517Z" fill="#EEEEEE"/>

</svg>
