<svg width="26" height="25" viewBox="0 0 26 25" fill="none" xmlns="http://www.w3.org/2000/svg">
<path fill-rule="evenodd" clip-rule="evenodd" d="M9.21267 1.96725C8.51933 1.75465 8.008 1.81146 7.63533 2.0259C7.26093 2.23851 6.93507 2.66188 6.7236 3.39134C6.51213 4.12629 6.44107 5.10684 6.54333 6.29083C6.56067 6.48328 6.58147 6.67939 6.60747 6.87916C7.56365 6.62537 8.5339 6.435 9.51253 6.30916C10.1811 5.31094 10.9198 4.36743 11.7225 3.48665C11.6846 3.45403 11.6464 3.42165 11.6081 3.38951C10.7276 2.65272 9.90947 2.17986 9.21267 1.96725ZM13 2.22384C12.896 2.1322 12.7903 2.04056 12.6845 1.95259C11.6931 1.12416 10.6773 0.506508 9.69627 0.205929C8.70827 -0.0964837 7.69773 -0.0964837 6.80853 0.414868C5.91933 0.924387 5.36467 1.82063 5.06653 2.85983C4.7684 3.89353 4.70253 5.12884 4.81693 6.46128C4.84467 6.77286 4.88107 7.09177 4.9296 7.41984C4.63493 7.52981 4.35067 7.64894 4.08027 7.77174C2.9172 8.29775 1.92053 8.9484 1.20293 9.71817C0.481867 10.4898 0 11.43 0 12.5004C0 13.5689 0.481867 14.511 1.20293 15.2844C1.92053 16.0542 2.9172 16.703 4.08027 17.2308C4.35067 17.3536 4.63493 17.4709 4.9296 17.5827C4.88287 17.901 4.8453 18.2206 4.81693 18.5413C4.70253 19.8719 4.7684 21.1072 5.06653 22.1427C5.36467 23.1819 5.91933 24.0782 6.80853 24.5859C7.69773 25.0954 8.71 25.0972 9.69627 24.7948C10.6773 24.4924 11.6931 23.8784 12.6845 23.0481L13 22.7751C13.104 22.8685 13.2097 22.9583 13.3155 23.0481C14.3069 23.8766 15.3227 24.4924 16.3037 24.7948C17.29 25.0972 18.3023 25.0954 19.1915 24.5859C20.0807 24.0782 20.6353 23.1819 20.9335 22.1427C21.2316 21.109 21.2975 19.8719 21.1831 18.5413C21.1548 18.2206 21.1172 17.901 21.0704 17.5827C21.357 17.4751 21.6403 17.3577 21.9197 17.2308C23.0828 16.703 24.0795 16.0523 24.7971 15.2844C25.5181 14.511 26 13.5689 26 12.4985C26 11.4318 25.5181 10.4898 24.7971 9.71634C24.0795 8.94656 23.0828 8.29592 21.9197 7.7699C21.64 7.64358 21.3568 7.52623 21.0704 7.41801C21.1172 7.08994 21.1553 6.77103 21.1831 6.45945C21.2975 5.127 21.2316 3.89353 20.9335 2.85799C20.6353 1.8188 20.0807 0.922555 19.1915 0.413035C18.304 -0.0964837 17.29 -0.0964837 16.3037 0.205929C15.3227 0.506508 14.3069 1.12233 13.3155 1.95259L13 2.22568V2.22384ZM13 4.72562C12.61 5.14716 12.22 5.61086 11.8352 6.10939C12.6114 6.0769 13.3886 6.0769 14.1648 6.10939C13.7961 5.63013 13.4074 5.16842 13 4.72562ZM16.4875 6.30916C15.7768 5.25713 15.0315 4.30774 14.2775 3.48665L14.3901 3.38951C15.2741 2.65272 16.0888 2.17986 16.7873 1.96725C17.4789 1.75465 17.992 1.81146 18.3647 2.0259C18.7391 2.23851 19.0649 2.66188 19.2747 3.39134C19.4861 4.12629 19.5589 5.10684 19.4567 6.29083C19.4393 6.48328 19.4185 6.67939 19.3925 6.87733C18.4363 6.62416 17.4661 6.4344 16.4875 6.30916ZM15.5116 8.03933C13.8408 7.87482 12.1592 7.87482 10.4884 8.03933C9.59583 9.45108 8.82376 10.944 8.18133 12.5004C8.82384 14.0558 9.59529 15.548 10.4867 16.9596C12.1586 17.1243 13.8414 17.1243 15.5133 16.9596C16.4052 15.5483 17.1767 14.0561 17.8187 12.5004C17.1763 10.9443 16.4031 9.45147 15.5116 8.03933ZM18.6732 10.1251C18.3863 9.53096 18.0816 8.94661 17.7597 8.3729C18.2104 8.46454 18.6455 8.56717 19.0632 8.68081C18.954 9.15001 18.824 9.63387 18.6732 10.1251ZM18.6732 14.8738C18.3867 15.4688 18.0821 16.0538 17.7597 16.6278C18.2104 16.5362 18.6455 16.4336 19.0632 16.3181C18.9492 15.832 18.8191 15.3503 18.6732 14.8738ZM20.7185 15.7664C20.4493 14.6546 20.1087 13.5634 19.6993 12.5004C20.1257 11.3824 20.4672 10.2845 20.7185 9.23431C20.8971 9.30396 21.0704 9.37911 21.2385 9.45425C22.2716 9.92345 23.0533 10.4568 23.5629 11.003C24.0691 11.5455 24.2667 12.0513 24.2667 12.5004C24.2667 12.9494 24.0691 13.4534 23.5629 13.9959C23.0533 14.5439 22.2716 15.0773 21.2385 15.5465C21.0667 15.6238 20.8933 15.6971 20.7185 15.7664ZM19.3925 18.1216C18.4364 18.3758 17.4662 18.5661 16.4875 18.6916C15.7768 19.7436 15.0315 20.6912 14.2775 21.5141L14.3919 21.6094C15.2724 22.348 16.0905 22.819 16.7873 23.0335C17.4789 23.2461 17.992 23.1893 18.3647 22.9748C18.7391 22.7604 19.0649 22.337 19.2747 21.6076C19.4879 20.8744 19.5589 19.8921 19.4567 18.7081C19.4393 18.5121 19.4179 18.3166 19.3925 18.1216ZM13 20.2751C13.39 19.8536 13.78 19.3899 14.1648 18.8914C13.3886 18.9239 12.6114 18.9239 11.8352 18.8914C12.22 19.3899 12.61 19.8517 13 20.2751ZM8.24027 16.6278C7.91806 16.0537 7.61341 15.4687 7.3268 14.8738C7.176 15.3687 7.046 15.8489 6.9368 16.3181C7.3528 16.4336 7.7896 16.5362 8.24027 16.6278ZM6.60747 18.1216C7.56357 18.3758 8.53384 18.5661 9.51253 18.6916C10.2232 19.7436 10.9668 20.6912 11.7225 21.5141C11.6846 21.5461 11.6465 21.5779 11.6081 21.6094C10.7276 22.348 9.90947 22.819 9.21267 23.0335C8.51933 23.2461 8.008 23.1893 7.6336 22.9748C7.2592 22.7604 6.93507 22.337 6.7236 21.6076C6.51213 20.8744 6.44107 19.8921 6.54333 18.7081C6.56072 18.5121 6.5821 18.3166 6.60747 18.1216ZM5.28147 15.7664C5.5328 14.7144 5.87253 13.6184 6.30067 12.5004C5.89127 11.4374 5.55075 10.3462 5.28147 9.23431C5.10683 9.30414 4.93347 9.37747 4.76147 9.45425C3.7284 9.92345 2.94667 10.4568 2.43707 11.003C1.93093 11.5455 1.73333 12.0513 1.73333 12.5004C1.73333 12.9494 1.93093 13.4534 2.43707 13.9959C2.94667 14.5439 3.7284 15.0773 4.76147 15.5465C4.9296 15.6216 5.10293 15.6949 5.28147 15.7664ZM6.9368 8.68264C7.046 9.15001 7.176 9.63387 7.3268 10.1251C7.61359 9.53088 7.91824 8.94653 8.24027 8.3729C7.7896 8.46454 7.35453 8.56717 6.9368 8.68264ZM10.4 12.5004C10.4 11.7712 10.6739 11.072 11.1615 10.5564C11.6491 10.0408 12.3104 9.75117 13 9.75117C13.6896 9.75117 14.3509 10.0408 14.8385 10.5564C15.3261 11.072 15.6 11.7712 15.6 12.5004C15.6 13.2295 15.3261 13.9288 14.8385 14.4443C14.3509 14.9599 13.6896 15.2496 13 15.2496C12.3104 15.2496 11.6491 14.9599 11.1615 14.4443C10.6739 13.9288 10.4 13.2295 10.4 12.5004ZM13 11.584C12.7701 11.584 12.5497 11.6805 12.3872 11.8524C12.2246 12.0242 12.1333 12.2573 12.1333 12.5004C12.1333 12.7434 12.2246 12.9765 12.3872 13.1484C12.5497 13.3202 12.7701 13.4168 13 13.4168C13.2299 13.4168 13.4503 13.3202 13.6128 13.1484C13.7754 12.9765 13.8667 12.7434 13.8667 12.5004C13.8667 12.2573 13.7754 12.0242 13.6128 11.8524C13.4503 11.6805 13.2299 11.584 13 11.584Z" fill="#EEEEEE"/>
</svg>
