<svg width="40" height="24" viewBox="0 0 40 24" fill="none" xmlns="http://www.w3.org/2000/svg">
<path d="M20 0C14.66 0 11.34 2.66 10 8C12 5.34 14.34 4.34 17 5C18.52 5.38 19.62 6.48 20.82 7.7C22.78 9.7 25 12 30 12C35.34 12 38.66 9.34 40 4C38 6.66 35.66 7.66 33 7C31.48 6.62 30.4 5.52 29.18 4.3C27.22 2.3 25 0 20 0ZM10 12C4.66 12 1.34 14.66 0 20C2 17.34 4.34 16.34 7 17C8.52 17.38 9.6 18.48 10.82 19.7C12.78 21.7 15 24 20 24C25.34 24 28.66 21.34 30 16C28 18.66 25.66 19.66 23 19C21.48 18.62 20.4 17.52 19.18 16.3C17.22 14.3 15 12 10 12Z" fill="#EEEEEE"/>
</svg>
