<svg width="25" height="25" viewBox="0 0 25 25" fill="none" xmlns="http://www.w3.org/2000/svg">
<mask id="mask0_442_1531" style="mask-type:luminance" maskUnits="userSpaceOnUse" x="0" y="0" width="25" height="25">
<path d="M0 0H25V25H0V0Z" fill="white"/>
</mask>
<g mask="url(#mask0_442_1531)">
<path d="M24.4052 9.13821e-07H0.593751C0.436183 0.000276865 0.285163 0.063064 0.173843 0.174579C0.062523 0.286094 6.73794e-07 0.437224 9.15433e-07 0.594793V24.4062C-0.000136306 24.4844 0.0151548 24.5618 0.0449972 24.634C0.0748397 24.7063 0.118646 24.7719 0.173905 24.8271C0.229164 24.8824 0.294788 24.9262 0.367013 24.956C0.439239 24.9859 0.516645 25.0012 0.594793 25.001H24.4062C24.4844 25.001 24.5617 24.9857 24.6339 24.9558C24.706 24.9259 24.7716 24.8821 24.8268 24.8268C24.8821 24.7716 24.9259 24.706 24.9558 24.6339C24.9857 24.5617 25.001 24.4844 25.001 24.4062V0.593751C25.0009 0.515642 24.9854 0.438324 24.9554 0.366213C24.9254 0.294102 24.8814 0.228609 24.8261 0.173475C24.7708 0.11834 24.7051 0.0746425 24.6329 0.0448779C24.5607 0.0151132 24.4833 -0.000136 24.4052 9.13821e-07ZM14.8813 13.3604H11.9052V22.6187H9.52396V13.3604H6.54792V11.3094H14.8813V13.3604ZM15.5479 22.0896V19.6156C15.5479 19.6156 16.9 20.6344 18.5219 20.6344C20.1437 20.6344 20.0812 19.574 20.0812 19.4281C20.0812 17.8896 15.4854 17.8896 15.4854 14.4792C15.4854 9.84167 22.1823 11.6719 22.1823 11.6719L22.099 13.876C22.099 13.876 20.976 13.1271 19.7073 13.1271C18.4385 13.1271 17.9812 13.7313 17.9812 14.375C17.9812 16.0385 22.6187 15.8729 22.6187 19.2208C22.6187 24.3771 15.5479 22.0906 15.5479 22.0906V22.0896Z" fill="#EEEEEE"/>
</g>
</svg>
