<svg width="24" height="25" viewBox="0 0 24 25" fill="none" xmlns="http://www.w3.org/2000/svg">
<path d="M8.28237 11.0185L8.79503 2.00077C8.7991 1.9302 8.82561 1.86306 8.87039 1.80988C8.91516 1.7567 8.97565 1.72052 9.04235 1.70702L17.3851 0.00597411C17.4366 -0.00455226 17.4899 -0.00112656 17.5398 0.0159225C17.5897 0.0329716 17.6345 0.0630719 17.67 0.103335C17.7055 0.143599 17.7304 0.192674 17.7424 0.245852C17.7544 0.29903 17.7531 0.354526 17.7386 0.407016L16.1785 6.03514C16.1641 6.08753 16.1628 6.14291 16.1747 6.19598C16.1867 6.24905 16.2115 6.29805 16.2469 6.33828C16.2822 6.37851 16.3269 6.40864 16.3767 6.42578C16.4264 6.44292 16.4795 6.4465 16.531 6.43619L18.9221 5.95702C18.9783 5.94557 19.0366 5.95078 19.0901 5.97204C19.1437 5.9933 19.1904 6.02977 19.2251 6.0773C19.2597 6.12483 19.2808 6.18151 19.286 6.2409C19.2912 6.30029 19.2803 6.36001 19.2545 6.41327L12.4557 20.5279L12.3326 20.7258C12.3061 20.7706 12.269 20.8075 12.2248 20.8331C12.1806 20.8586 12.1308 20.8719 12.0803 20.8716C11.903 20.8716 11.7298 20.7133 11.7749 20.4872L12.8713 14.9654C12.882 14.9113 12.8791 14.8552 12.8628 14.8026C12.8464 14.7501 12.8172 14.7029 12.7781 14.6656C12.7389 14.6283 12.6911 14.6022 12.6393 14.59C12.5876 14.5777 12.5336 14.5796 12.4828 14.5956L11.0479 15.0487C10.9971 15.0648 10.9432 15.0669 10.8914 15.0548C10.8396 15.0426 10.7917 15.0167 10.7524 14.9795C10.7131 14.9423 10.6838 14.8952 10.6673 14.8427C10.6509 14.7901 10.6478 14.7341 10.6584 14.6799L11.3493 11.1643C11.3598 11.1118 11.3574 11.0574 11.3423 11.0062C11.3272 10.9549 11.2999 10.9084 11.263 10.8711C11.2261 10.8337 11.1807 10.8066 11.131 10.7923C11.0813 10.778 11.029 10.777 10.9788 10.7893L8.65585 11.3476C8.60949 11.3587 8.56128 11.3584 8.51505 11.3468C8.46882 11.3351 8.42583 11.3124 8.3895 11.2805C8.35316 11.2485 8.32447 11.2082 8.3057 11.1628C8.28693 11.1173 8.2786 11.0679 8.28136 11.0185H8.28237ZM23.2777 2.76223L17.292 3.89556L16.7473 5.86119L18.827 5.44452C18.9881 5.4111 19.1553 5.43005 19.3057 5.49881C19.4562 5.56757 19.5827 5.68281 19.668 5.82889C19.7405 5.95039 19.7817 6.08923 19.7876 6.23207C19.7936 6.37491 19.7641 6.51695 19.7021 6.64452L12.9023 20.7602L12.8893 20.7862L12.8743 20.8102L12.7521 21.0081C12.6799 21.1257 12.5805 21.2227 12.4629 21.29C12.3454 21.3574 12.2135 21.3929 12.0793 21.3935C11.9577 21.3928 11.8378 21.3642 11.7281 21.3099C11.6184 21.2555 11.5215 21.1766 11.4444 21.0789C11.3695 20.9823 11.3162 20.8696 11.2884 20.7488C11.2607 20.6281 11.2593 20.5024 11.2842 20.381L12.3146 15.1924L11.1931 15.5466C11.0397 15.5947 10.8761 15.5944 10.7228 15.5458C10.5696 15.4973 10.4336 15.4026 10.332 15.2737C10.2563 15.1775 10.2021 15.0649 10.1736 14.9442C10.145 14.8234 10.1427 14.6976 10.1668 14.5758L10.7976 11.3674L8.76799 11.8549C8.6306 11.8877 8.48736 11.8825 8.35248 11.8399C8.2176 11.7974 8.09575 11.7189 7.999 11.6122C7.924 11.5288 7.86607 11.4304 7.82872 11.3229C7.79137 11.2155 7.77538 11.1013 7.78172 10.9872L8.17122 4.14348L0.721618 2.75806C0.606839 2.73651 0.488532 2.74949 0.380595 2.79546C0.272659 2.84144 0.179577 2.91851 0.112283 3.01761C0.0449894 3.11671 0.00627971 3.23374 0.000701432 3.35494C-0.00487685 3.47613 0.0229079 3.59647 0.0807918 3.70181L11.5806 24.6779C11.6343 24.776 11.7122 24.8576 11.8062 24.9142C11.9001 24.9708 12.0069 25.0004 12.1155 25C12.2241 24.9996 12.3306 24.9691 12.4242 24.9118C12.5177 24.8545 12.595 24.7723 12.648 24.6737L23.9225 3.69973C23.979 3.5942 24.0056 3.47414 23.999 3.35353C23.9925 3.23292 23.9531 3.11673 23.8856 3.01849C23.818 2.92025 23.725 2.844 23.6174 2.79863C23.5097 2.75326 23.3919 2.74064 23.2777 2.76223Z" fill="#EEEEEE"/>
</svg>
