<svg width="425" height="147" viewBox="0 0 425 147" fill="none" xmlns="http://www.w3.org/2000/svg">
<path d="M6.281 73V9.3H32.398C37.0693 9.3 41.2857 10.0887 45.047 11.666C48.869 13.1827 52.145 15.3667 54.875 18.218C57.6657 21.0087 59.789 24.3453 61.245 28.228C62.701 32.1107 63.429 36.418 63.429 41.15C63.429 45.8213 62.701 50.1287 61.245 54.072C59.789 57.9547 57.696 61.3217 54.966 64.173C52.236 66.9637 48.96 69.1477 45.138 70.725C41.316 72.2417 37.0693 73 32.398 73H6.281ZM19.931 63.081L18.475 60.715H31.943C34.673 60.715 37.13 60.26 39.314 59.35C41.498 58.3793 43.3483 57.075 44.865 55.437C46.4423 53.7383 47.6253 51.6757 48.414 49.249C49.2027 46.8223 49.597 44.1227 49.597 41.15C49.597 38.1773 49.2027 35.508 48.414 33.142C47.6253 30.7153 46.4423 28.6527 44.865 26.954C43.3483 25.2553 41.498 23.951 39.314 23.041C37.13 22.0703 34.673 21.585 31.943 21.585H18.202L19.931 19.401V63.081ZM101.801 73.91C97.7971 73.91 94.1875 72.818 90.9721 70.634C87.7568 68.45 85.2088 65.4773 83.3281 61.716C81.4475 57.9547 80.5071 53.6473 80.5071 48.794C80.5071 43.9407 81.4475 39.6637 83.3281 35.963C85.2695 32.2017 87.8781 29.2593 91.1541 27.136C94.4301 24.952 98.1611 23.86 102.347 23.86C104.713 23.86 106.867 24.224 108.808 24.952C110.81 25.6193 112.539 26.5597 113.995 27.773C115.512 28.9863 116.786 30.3817 117.817 31.959C118.848 33.5363 119.576 35.235 120.001 37.055L117.271 36.6V24.861H130.102V73H117.089V61.443L120.001 61.17C119.516 62.8687 118.727 64.4763 117.635 65.993C116.543 67.5097 115.178 68.8747 113.54 70.088C111.963 71.2407 110.173 72.181 108.171 72.909C106.169 73.5763 104.046 73.91 101.801 73.91ZM105.35 62.717C107.777 62.717 109.9 62.1407 111.72 60.988C113.54 59.8353 114.935 58.2277 115.906 56.165C116.937 54.0417 117.453 51.5847 117.453 48.794C117.453 46.064 116.937 43.6677 115.906 41.605C114.935 39.5423 113.54 37.9347 111.72 36.782C109.9 35.5687 107.777 34.962 105.35 34.962C102.984 34.962 100.891 35.5687 99.0711 36.782C97.3118 37.9347 95.9165 39.5423 94.8851 41.605C93.8538 43.6677 93.3381 46.064 93.3381 48.794C93.3381 51.5847 93.8538 54.0417 94.8851 56.165C95.9165 58.2277 97.3118 59.8353 99.0711 60.988C100.891 62.1407 102.984 62.717 105.35 62.717ZM174.817 93.93C170.995 93.93 167.233 93.3537 163.533 92.201C159.832 91.109 156.829 89.6833 154.524 87.924L159.074 78.642C160.287 79.4913 161.682 80.2497 163.26 80.917C164.837 81.5843 166.475 82.1 168.174 82.464C169.933 82.828 171.723 83.01 173.543 83.01C176.697 83.01 179.276 82.5247 181.278 81.554C183.34 80.5833 184.887 79.1273 185.919 77.186C186.95 75.3053 187.466 72.8787 187.466 69.906V61.534L189.65 61.989C189.286 63.991 188.285 65.8413 186.647 67.54C185.009 69.178 182.946 70.5127 180.459 71.544C177.971 72.5147 175.423 73 172.815 73C168.325 73 164.352 71.9687 160.894 69.906C157.436 67.8433 154.706 64.992 152.704 61.352C150.702 57.712 149.701 53.526 149.701 48.794C149.701 43.9407 150.671 39.6637 152.613 35.963C154.615 32.2017 157.314 29.2593 160.712 27.136C164.17 24.952 168.083 23.86 172.451 23.86C174.271 23.86 176 24.0723 177.638 24.497C179.336 24.9217 180.883 25.5283 182.279 26.317C183.735 27.045 185.009 27.8943 186.101 28.865C187.253 29.775 188.194 30.776 188.922 31.868C189.65 32.96 190.105 34.052 190.287 35.144L187.648 35.872L188.012 24.861H200.388V69.36C200.388 73.3033 199.811 76.7917 198.659 79.825C197.506 82.8583 195.807 85.4063 193.563 87.469C191.379 89.5923 188.679 91.2 185.464 92.292C182.309 93.384 178.76 93.93 174.817 93.93ZM175.181 62.626C177.729 62.626 179.943 62.0497 181.824 60.897C183.765 59.7443 185.251 58.1367 186.283 56.074C187.314 54.0113 187.83 51.5847 187.83 48.794C187.83 46.064 187.314 43.6677 186.283 41.605C185.251 39.4817 183.765 37.8437 181.824 36.691C179.943 35.5383 177.729 34.962 175.181 34.962C172.693 34.962 170.479 35.5687 168.538 36.782C166.657 37.9347 165.201 39.5423 164.17 41.605C163.138 43.6677 162.623 46.064 162.623 48.794C162.623 51.524 163.138 53.9507 164.17 56.074C165.201 58.1367 166.657 59.7443 168.538 60.897C170.479 62.0497 172.693 62.626 175.181 62.626ZM224.146 73V24.861H237.068V73H224.146ZM230.516 14.942C228.029 14.942 226.088 14.3353 224.692 13.122C223.297 11.9087 222.599 10.1797 222.599 7.935C222.599 5.87233 223.297 4.204 224.692 2.93C226.148 1.59533 228.09 0.927995 230.516 0.927995C233.004 0.927995 234.945 1.565 236.34 2.839C237.736 4.05233 238.433 5.751 238.433 7.935C238.433 10.0583 237.705 11.757 236.249 13.031C234.854 14.305 232.943 14.942 230.516 14.942ZM260.607 73V24.861H273.074L273.347 34.052L271.436 34.416C272.103 32.8387 272.983 31.413 274.075 30.139C275.167 28.865 276.441 27.773 277.897 26.863C279.413 25.953 280.991 25.2553 282.629 24.77C284.267 24.224 285.905 23.951 287.543 23.951C290.03 23.951 292.275 24.3453 294.277 25.134C296.279 25.9227 297.977 27.1663 299.373 28.865C300.768 30.503 301.86 32.687 302.649 35.417L300.647 35.235L301.284 33.779C302.072 32.323 303.073 31.0187 304.287 29.866C305.5 28.6527 306.865 27.6213 308.382 26.772C309.898 25.862 311.476 25.1643 313.114 24.679C314.752 24.1937 316.359 23.951 317.937 23.951C321.698 23.951 324.822 24.7093 327.31 26.226C329.797 27.682 331.647 29.8963 332.861 32.869C334.135 35.8417 334.772 39.4817 334.772 43.789V73H321.85V44.699C321.85 42.515 321.546 40.7253 320.94 39.33C320.333 37.9347 319.453 36.9033 318.301 36.236C317.148 35.508 315.662 35.144 313.842 35.144C312.446 35.144 311.142 35.3867 309.929 35.872C308.776 36.2967 307.745 36.9337 306.835 37.783C305.985 38.5717 305.318 39.512 304.833 40.604C304.347 41.696 304.105 42.9093 304.105 44.244V73H291.183V44.608C291.183 42.606 290.849 40.9073 290.182 39.512C289.575 38.056 288.695 36.964 287.543 36.236C286.39 35.508 284.964 35.144 283.266 35.144C281.87 35.144 280.566 35.3867 279.353 35.872C278.2 36.2967 277.199 36.9337 276.35 37.783C275.5 38.5717 274.803 39.512 274.257 40.604C273.771 41.696 273.529 42.879 273.529 44.153V73H260.607ZM26.938 146.91C22.9947 146.91 19.385 146.425 16.109 145.454C12.8937 144.483 10.012 143.058 7.464 141.177C4.97667 139.296 2.732 137.021 0.73 134.352L9.284 124.615C12.2567 128.74 15.199 131.561 18.111 133.078C21.0837 134.534 24.299 135.262 27.757 135.262C29.6377 135.262 31.306 135.019 32.762 134.534C34.2787 133.988 35.4617 133.23 36.311 132.259C37.1603 131.288 37.585 130.136 37.585 128.801C37.585 127.83 37.3727 126.951 36.948 126.162C36.5233 125.313 35.9167 124.585 35.128 123.978C34.3393 123.311 33.399 122.734 32.307 122.249C31.215 121.703 30.0017 121.248 28.667 120.884C27.3323 120.459 25.8763 120.126 24.299 119.883C20.9017 119.094 17.929 118.154 15.381 117.062C12.833 115.909 10.7097 114.514 9.011 112.876C7.31233 111.177 6.03833 109.266 5.189 107.143C4.40033 105.02 4.006 102.623 4.006 99.954C4.006 97.224 4.61267 94.7063 5.826 92.401C7.03933 90.035 8.70767 88.0027 10.831 86.304C13.015 84.6053 15.5023 83.301 18.293 82.391C21.1443 81.481 24.1473 81.026 27.302 81.026C31.1847 81.026 34.582 81.481 37.494 82.391C40.406 83.2403 42.9237 84.484 45.047 86.122C47.231 87.76 49.051 89.762 50.507 92.128L41.862 100.5C40.588 98.8013 39.1927 97.3757 37.676 96.223C36.22 95.0703 34.6123 94.221 32.853 93.675C31.1543 93.0683 29.395 92.765 27.575 92.765C25.573 92.765 23.844 93.038 22.388 93.584C20.932 94.0693 19.7793 94.7973 18.93 95.768C18.1413 96.7387 17.747 97.9217 17.747 99.317C17.747 100.409 18.02 101.38 18.566 102.229C19.112 103.078 19.9007 103.837 20.932 104.504C21.9633 105.111 23.207 105.657 24.663 106.142C26.119 106.627 27.7267 107.052 29.486 107.416C32.8227 108.083 35.8257 108.963 38.495 110.055C41.1643 111.147 43.4393 112.482 45.32 114.059C47.2613 115.576 48.7477 117.396 49.779 119.519C50.8103 121.582 51.326 123.917 51.326 126.526C51.326 130.833 50.2947 134.504 48.232 137.537C46.1693 140.57 43.318 142.906 39.678 144.544C36.038 146.121 31.7913 146.91 26.938 146.91ZM68.6942 146V78.66H81.4342V107.689L78.8862 108.781C79.5535 106.597 80.7365 104.625 82.4352 102.866C84.1945 101.046 86.2875 99.59 88.7142 98.498C91.1409 97.406 93.6889 96.86 96.3582 96.86C99.9982 96.86 103.032 97.588 105.458 99.044C107.946 100.5 109.796 102.714 111.009 105.687C112.283 108.599 112.92 112.209 112.92 116.516V146H99.9982V117.517C99.9982 115.333 99.6949 113.513 99.0882 112.057C98.4815 110.601 97.5412 109.539 96.2672 108.872C95.0539 108.144 93.5372 107.841 91.7172 107.962C90.2612 107.962 88.8962 108.205 87.6222 108.69C86.4089 109.115 85.3472 109.752 84.4372 110.601C83.5879 111.45 82.8902 112.421 82.3442 113.513C81.8589 114.605 81.6162 115.788 81.6162 117.062V146H75.2462C73.8509 146 72.6072 146 71.5152 146C70.4232 146 69.4829 146 68.6942 146ZM135.04 146V97.861H147.962V146H135.04ZM141.41 87.942C138.922 87.942 136.981 87.3353 135.586 86.122C134.19 84.9087 133.493 83.1797 133.493 80.935C133.493 78.8723 134.19 77.204 135.586 75.93C137.042 74.5953 138.983 73.928 141.41 73.928C143.897 73.928 145.838 74.565 147.234 75.839C148.629 77.0523 149.327 78.751 149.327 80.935C149.327 83.0583 148.599 84.757 147.143 86.031C145.747 87.305 143.836 87.942 141.41 87.942ZM168.497 146V97.861H180.964L181.237 107.052L179.326 107.416C179.993 105.839 180.873 104.413 181.965 103.139C183.057 101.865 184.331 100.773 185.787 99.863C187.304 98.953 188.881 98.2553 190.519 97.77C192.157 97.224 193.795 96.951 195.433 96.951C197.92 96.951 200.165 97.3453 202.167 98.134C204.169 98.9227 205.868 100.166 207.263 101.865C208.658 103.503 209.75 105.687 210.539 108.417L208.537 108.235L209.174 106.779C209.963 105.323 210.964 104.019 212.177 102.866C213.39 101.653 214.755 100.621 216.272 99.772C217.789 98.862 219.366 98.1643 221.004 97.679C222.642 97.1937 224.25 96.951 225.827 96.951C229.588 96.951 232.713 97.7093 235.2 99.226C237.687 100.682 239.538 102.896 240.751 105.869C242.025 108.842 242.662 112.482 242.662 116.789V146H229.74V117.699C229.74 115.515 229.437 113.725 228.83 112.33C228.223 110.935 227.344 109.903 226.191 109.236C225.038 108.508 223.552 108.144 221.732 108.144C220.337 108.144 219.032 108.387 217.819 108.872C216.666 109.297 215.635 109.934 214.725 110.783C213.876 111.572 213.208 112.512 212.723 113.604C212.238 114.696 211.995 115.909 211.995 117.244V146H199.073V117.608C199.073 115.606 198.739 113.907 198.072 112.512C197.465 111.056 196.586 109.964 195.433 109.236C194.28 108.508 192.855 108.144 191.156 108.144C189.761 108.144 188.456 108.387 187.243 108.872C186.09 109.297 185.089 109.934 184.24 110.783C183.391 111.572 182.693 112.512 182.147 113.604C181.662 114.696 181.419 115.879 181.419 117.153V146H168.497ZM284.633 146.91C279.416 146.91 274.866 145.848 270.983 143.725C267.1 141.602 264.067 138.69 261.883 134.989C259.699 131.288 258.607 127.042 258.607 122.249C258.607 118.548 259.214 115.151 260.427 112.057C261.64 108.963 263.339 106.294 265.523 104.049C267.707 101.744 270.285 99.9843 273.258 98.771C276.291 97.497 279.567 96.86 283.086 96.86C286.362 96.86 289.395 97.4667 292.186 98.68C294.977 99.8327 297.373 101.501 299.375 103.685C301.438 105.808 303.015 108.326 304.107 111.238C305.199 114.15 305.684 117.335 305.563 120.793L305.472 124.797H266.797L264.704 116.88H294.825L293.369 118.518V116.516C293.248 114.878 292.702 113.392 291.731 112.057C290.821 110.722 289.638 109.691 288.182 108.963C286.726 108.235 285.088 107.871 283.268 107.871C280.599 107.871 278.324 108.387 276.443 109.418C274.623 110.449 273.228 111.966 272.257 113.968C271.286 115.97 270.801 118.397 270.801 121.248C270.801 124.16 271.408 126.678 272.621 128.801C273.895 130.924 275.654 132.593 277.899 133.806C280.204 134.959 282.904 135.535 285.998 135.535C288.121 135.535 290.063 135.201 291.822 134.534C293.581 133.867 295.462 132.714 297.464 131.076L303.652 139.721C301.893 141.298 299.951 142.633 297.828 143.725C295.705 144.756 293.521 145.545 291.276 146.091C289.031 146.637 286.817 146.91 284.633 146.91ZM322.028 146V78.66H334.95V146H322.028ZM355.981 146V97.861H368.903V146H355.981ZM362.351 87.942C359.864 87.942 357.923 87.3353 356.527 86.122C355.132 84.9087 354.434 83.1797 354.434 80.935C354.434 78.8723 355.132 77.204 356.527 75.93C357.983 74.5953 359.925 73.928 362.351 73.928C364.839 73.928 366.78 74.565 368.175 75.839C369.571 77.0523 370.268 78.751 370.268 80.935C370.268 83.0583 369.54 84.757 368.084 86.031C366.689 87.305 364.778 87.942 362.351 87.942ZM405.728 146.91C401.238 146.91 397.234 146.182 393.716 144.726C390.258 143.209 387.467 141.147 385.344 138.538L393.352 131.622C395.232 133.624 397.325 135.08 399.631 135.99C401.936 136.839 404.241 137.264 406.547 137.264C407.457 137.264 408.276 137.173 409.004 136.991C409.792 136.748 410.46 136.445 411.006 136.081C411.552 135.656 411.946 135.171 412.189 134.625C412.492 134.018 412.644 133.381 412.644 132.714C412.644 131.379 412.098 130.318 411.006 129.529C410.399 129.226 409.459 128.862 408.185 128.437C406.911 127.952 405.273 127.436 403.271 126.89C400.177 126.101 397.538 125.191 395.354 124.16C393.23 123.068 391.532 121.855 390.258 120.52C389.166 119.246 388.316 117.881 387.71 116.425C387.164 114.908 386.891 113.24 386.891 111.42C386.891 109.236 387.376 107.264 388.347 105.505C389.317 103.685 390.652 102.138 392.351 100.864C394.11 99.59 396.112 98.6193 398.357 97.952C400.601 97.224 402.967 96.86 405.455 96.86C407.942 96.86 410.369 97.1633 412.735 97.77C415.101 98.3767 417.285 99.2563 419.287 100.409C421.349 101.501 423.139 102.805 424.656 104.322L417.74 111.966C416.648 110.935 415.404 109.994 414.009 109.145C412.674 108.296 411.279 107.628 409.823 107.143C408.367 106.658 407.062 106.415 405.91 106.415C404.878 106.415 403.938 106.506 403.089 106.688C402.3 106.87 401.633 107.143 401.087 107.507C400.541 107.871 400.116 108.356 399.813 108.963C399.57 109.509 399.449 110.116 399.449 110.783C399.449 111.45 399.6 112.087 399.904 112.694C400.268 113.301 400.753 113.816 401.36 114.241C402.027 114.605 402.998 115.03 404.272 115.515C405.606 116 407.396 116.546 409.641 117.153C412.553 117.942 415.01 118.821 417.012 119.792C419.074 120.763 420.712 121.885 421.926 123.159C422.957 124.251 423.715 125.495 424.201 126.89C424.686 128.285 424.929 129.832 424.929 131.531C424.929 134.504 424.079 137.173 422.381 139.539C420.743 141.844 418.468 143.664 415.556 144.999C412.644 146.273 409.368 146.91 405.728 146.91Z" fill="#EEEEEE"/>
</svg>
