<svg width="230" height="60" viewBox="0 0 230 60" fill="none" xmlns="http://www.w3.org/2000/svg">
<g clip-path="url(#clip0_152_456)">
<path d="M56.3028 43.9928C54.6119 42.6803 53.3359 40.8964 52.4747 38.6357C50.558 33.7285 50.9623 28.2375 53.6929 22.1571C57.3477 15.3857 63.2658 11.85 71.4365 11.55C73.4215 11.4375 75.4432 11.4589 77.4964 11.6196C80.8361 11.9196 83.3671 12.7553 85.0843 14.1268C86.8014 15.4982 88.0984 17.3089 88.9806 19.5696C90.8973 24.4982 90.4929 29.9893 87.7623 36.0482C84.1286 42.841 78.1002 46.4143 69.6774 46.7571C67.9603 46.8696 66.0226 46.8375 63.8539 46.6553C60.5142 46.1946 57.9936 45.3107 56.3028 43.9928ZM78.9247 29.9678C79.6231 27.3428 79.6493 25.3393 78.9929 23.9571C78.3365 22.575 76.7244 21.7714 74.1514 21.541C70.8117 21.2893 68.0548 21.8732 65.8913 23.3035C64.2005 24.6375 63.082 26.2875 62.5411 28.2428C60.9815 33.4714 62.5726 36.2785 67.3144 36.6696C71.195 36.7607 73.9518 36.1768 75.5744 34.9071C77.2653 33.5946 78.3838 31.95 78.9247 29.9678Z" fill="white"/>
<path d="M97.6818 43.9928C95.9909 42.6803 94.7149 40.8964 93.8537 38.6357C91.937 33.7285 92.3414 28.2375 95.072 22.1571C98.7268 15.3857 104.645 11.85 112.816 11.55C114.801 11.4375 116.822 11.4589 118.875 11.6196C122.215 11.9196 124.746 12.7553 126.458 14.1268C128.175 15.4982 129.472 17.3089 130.354 19.5696C132.271 24.4982 131.867 29.9893 129.136 36.0482C125.502 42.841 119.474 46.4143 111.051 46.7571C109.334 46.8696 107.396 46.8375 105.228 46.6553C101.888 46.1946 99.3674 45.3107 97.6765 43.9928H97.6818ZM120.304 29.9678C121.002 27.3428 121.028 25.3393 120.372 23.9571C119.716 22.575 118.103 21.7714 115.53 21.541C112.191 21.2893 109.434 21.8732 107.27 23.3035C105.58 24.6375 104.461 26.2875 103.92 28.2428C102.361 33.4714 103.952 36.2785 108.693 36.6696C112.574 36.7607 115.331 36.1768 116.953 34.9071C118.644 33.5946 119.763 31.95 120.304 29.9678Z" fill="white"/>
<path d="M131.515 46.8272L133.179 39.9272C133.552 38.379 134.912 37.2915 136.477 37.2915H151.459C153.333 37.4522 154.462 36.8522 154.846 35.4968C154.893 34.0236 153.806 33.354 151.595 33.4933H146.617C143.183 33.4236 140.568 32.2986 138.761 30.1075C136.934 27.895 136.367 24.8683 137.071 21.0218C139.056 14.3415 144.07 11.245 152.105 11.7272H170.867L169.302 18.2415C168.929 19.7897 167.569 20.8772 166.004 20.8772H150.414C149.038 20.8075 148.245 21.3165 148.045 22.3986C147.956 23.2504 148.25 23.8129 148.928 24.0915C149.605 24.37 150.54 24.4718 151.737 24.4022L156.174 24.2629C160.349 24.4022 163.116 25.6075 164.471 27.8897C165.826 30.145 166.188 33.1772 165.553 36.9754C164.177 43.795 159.593 47.0736 151.805 46.8218H131.515V46.8272Z" fill="white"/>
<path d="M170.147 34.8701L177.877 2.8237C178.25 1.27549 179.61 0.187988 181.175 0.187988H189.487C187.634 7.58085 186.678 11.4058 186.61 11.6576H194.702L192.895 19.2058C192.523 20.7541 191.163 21.8469 189.598 21.8469H184.205C183.617 24.3112 183.134 26.3576 182.75 27.9808C182.367 29.6041 182.015 31.0773 181.7 32.4005C181.385 33.7237 181.191 34.5487 181.122 34.8701C181.054 35.4433 181.191 35.963 181.527 36.4237C181.868 36.8844 182.341 37.1148 182.95 37.1148H188.637L186.962 44.1755C186.594 45.7291 185.229 46.8219 183.664 46.8219H178.954C175.929 46.8219 173.545 45.6219 171.807 43.2273C170.048 40.8326 169.491 38.0469 170.147 34.8648V34.8701Z" fill="white"/>
<path d="M199.654 46.4833C197.916 45.9476 196.456 44.8869 195.274 43.3012C193.489 40.9066 192.948 38.1208 193.646 34.9387L198.535 14.3351C198.903 12.7816 200.268 11.6887 201.833 11.6887H210.303L204.784 34.9387C204.716 35.5173 204.842 36.0316 205.157 36.4923C205.498 36.953 205.992 37.1833 206.648 37.1833H212.64L218.096 14.2333C218.463 12.6798 219.829 11.5869 221.393 11.5869H229.942L221.409 47.8601C220.553 51.0369 218.652 53.8226 215.722 56.2226C212.766 58.6173 209.762 59.8173 206.716 59.8173H199.097L200.856 52.7244C201.24 51.1869 202.594 50.1101 204.149 50.1101H207.331C207.94 50.1101 208.528 49.8798 209.09 49.4191C209.652 48.9583 210.04 48.4387 210.24 47.8655L210.476 46.8958H202.521C201.492 46.8958 200.536 46.7619 199.654 46.4887V46.4833Z" fill="white"/>
<path d="M14.3356 11.8666H5.09359C3.534 11.8666 2.17395 12.9541 1.80112 14.4969L0.0419922 21.7559H11.9516L14.3356 11.8666Z" fill="white"/>
<path d="M14.5509 25.0291L12.3822 33.9755H23.6617L25.7096 25.0291H14.5509Z" fill="white"/>
<path d="M47.8694 19.3933C47.0135 17.1808 45.7427 15.4344 44.0624 14.1433C42.382 12.8523 39.9035 12.1076 36.632 11.8987L28.7763 11.8666L31.3861 0.187988H23.2416C21.682 0.187988 20.3219 1.27549 19.9491 2.81835L15.3491 21.7773H33.35C38.0025 21.8469 39.5569 24.563 38.0236 29.9309C37.4827 31.8862 36.3852 33.5469 34.7363 34.9076C33.0665 36.3594 30.8767 37.1308 28.1672 37.2219H22.9265L20.7315 46.8273H28.9811C37.1519 46.3237 43.0436 42.6005 46.6564 35.6684C49.345 29.6094 49.7493 24.188 47.8747 19.3987H47.8694V19.3933Z" fill="white"/>
</g>
<defs>
<clipPath id="clip0_152_456">
<rect width="230" height="60" fill="white"/>
</clipPath>
</defs>
</svg>
