<svg width="329" height="77" viewBox="0 0 329 77" fill="none" xmlns="http://www.w3.org/2000/svg">
<path d="M126.691 17.5908V58.9588H112.721V43.7086H99.7916V58.9588H85.8042V17.5908H99.7916V32.2453H112.721V17.5908H126.691Z" fill="white"/>
<path d="M131.88 22.1097C131.18 21.5033 130.618 20.7542 130.234 19.913C129.849 19.0717 129.65 18.1579 129.65 17.2333C129.65 16.3088 129.849 15.395 130.234 14.5537C130.618 13.7125 131.18 12.9633 131.88 12.357C133.522 11.0231 135.601 10.3412 137.717 10.4422C139.828 10.3344 141.907 10.9835 143.58 12.2719C144.286 12.8394 144.851 13.5615 145.231 14.3822C145.611 15.2028 145.797 16.0998 145.773 17.0036C145.801 17.9536 145.619 18.8981 145.24 19.7702C144.861 20.6423 144.294 21.4206 143.58 22.0501C141.95 23.4315 139.853 24.1407 137.717 24.033C135.599 24.1373 133.518 23.4517 131.88 22.1097ZM131.026 26.6286H144.416V58.9672H131.018L131.026 26.6286Z" fill="white"/>
<path d="M171.555 26.041V37.8616C170.575 37.7083 169.585 37.6287 168.593 37.6234C164.002 37.6234 161.709 39.9466 161.715 44.5932V58.9584H148.325V26.6197H161.066V30.1089C163.428 27.4026 166.924 26.0467 171.555 26.041Z" fill="white"/>
<path d="M207.347 45.895H184.825C185.265 47.0778 186.104 48.071 187.198 48.7034C188.468 49.3926 189.9 49.7305 191.346 49.682C192.563 49.7147 193.776 49.5332 194.93 49.1459C196.072 48.693 197.141 48.0766 198.105 47.3162L205.094 54.3456C201.936 57.8178 197.217 59.551 190.936 59.5453C187.377 59.6231 183.847 58.8866 180.618 57.3922C177.82 56.0753 175.453 53.9952 173.791 51.3926C172.21 48.7854 171.375 45.797 171.375 42.7505C171.375 39.704 172.21 36.7155 173.791 34.1084C175.395 31.5584 177.671 29.4976 180.371 28.1513C183.233 26.7814 186.363 26.0553 189.538 26.0245C192.713 25.9936 195.856 26.6586 198.745 27.9726C201.402 29.2312 203.644 31.2213 205.205 33.7084C206.858 36.429 207.69 39.5666 207.603 42.7462C207.526 42.959 207.449 44.0057 207.347 45.895ZM186.37 36.2615C185.418 37.0833 184.787 38.2131 184.587 39.4528H195.024C194.809 38.2277 194.18 37.1132 193.24 36.2955C192.281 35.5098 191.067 35.0985 189.826 35.1381C188.576 35.087 187.35 35.4857 186.37 36.2615Z" fill="white"/>
<path d="M241.125 21.2842C244.083 23.7465 245.565 27.1648 245.571 31.539C245.577 35.9132 244.095 39.3173 241.125 41.7512C238.161 44.2135 234.073 45.4446 228.861 45.4446H217.007V58.9758H213.986V17.5908H228.861C234.079 17.5908 238.166 18.822 241.125 21.2842ZM239.025 39.8109C241.358 37.8762 242.524 35.1189 242.524 31.539C242.524 27.9591 241.358 25.1904 239.025 23.2331C236.693 21.2871 233.316 20.3112 228.895 20.3056H217.007V42.7044H228.861C233.282 42.7044 236.67 41.7399 239.025 39.8109Z" fill="white"/>
<path d="M251.614 19.9222C251.382 19.7046 251.198 19.4403 251.076 19.1469C250.954 18.8536 250.896 18.5377 250.905 18.2202C250.903 17.9036 250.964 17.5897 251.086 17.2973C251.207 17.0049 251.387 16.7399 251.614 16.5181C251.835 16.2909 252.101 16.1111 252.394 15.9897C252.688 15.8683 253.003 15.8077 253.32 15.8118C253.956 15.8023 254.57 16.044 255.027 16.4841C255.259 16.7018 255.442 16.966 255.564 17.2594C255.687 17.5528 255.745 17.8686 255.736 18.1861C255.74 18.5029 255.679 18.8173 255.557 19.1099C255.435 19.4025 255.255 19.6673 255.027 19.8882C254.805 20.1142 254.539 20.2932 254.246 20.4145C253.953 20.5359 253.638 20.5971 253.32 20.5945C252.685 20.6031 252.072 20.3615 251.614 19.9222ZM251.853 28.109H254.814V58.9584H251.827L251.853 28.109Z" fill="white"/>
<path d="M265.302 15.1055H268.264V58.9584H265.302V15.1055Z" fill="white"/>
<path d="M282.934 57.1794C280.617 55.8615 278.711 53.9291 277.429 51.5967C276.101 49.1078 275.406 46.3315 275.406 43.512C275.406 40.6926 276.101 37.9163 277.429 35.4274C278.724 33.0929 280.641 31.1608 282.968 29.8447C285.396 28.5394 288.114 27.8603 290.873 27.8692C293.632 27.8781 296.344 28.5748 298.764 29.8958C301.092 31.2118 303.008 33.1439 304.303 35.4784C305.631 37.9674 306.326 40.7436 306.326 43.5631C306.326 46.3826 305.631 49.1589 304.303 51.6478C303.008 53.9823 301.092 55.9144 298.764 57.2304C296.337 58.5481 293.617 59.2384 290.853 59.2384C288.089 59.2384 285.37 58.5481 282.942 57.2304L282.934 57.1794ZM297.211 54.8816C299.087 53.7771 300.625 52.1821 301.658 50.2691C302.729 48.1846 303.288 45.8758 303.288 43.5333C303.288 41.1909 302.729 38.882 301.658 36.7975C300.627 34.883 299.089 33.2874 297.211 32.185C295.263 31.1022 293.071 30.5337 290.841 30.5337C288.611 30.5337 286.418 31.1022 284.47 32.185C282.597 33.2907 281.062 34.8856 280.032 36.7975C278.96 38.882 278.402 41.1909 278.402 43.5333C278.402 45.8758 278.96 48.1846 280.032 50.2691C281.064 52.1797 282.598 53.7742 284.47 54.8816C286.418 55.9645 288.611 56.5329 290.841 56.5329C293.071 56.5329 295.263 55.9645 297.211 54.8816Z" fill="white"/>
<path d="M328.83 57.0093C328.022 57.7503 327.061 58.3052 326.014 58.6348C324.876 59.0037 323.686 59.1904 322.489 59.188C319.801 59.188 317.727 58.4561 316.268 56.9753C315.507 56.1438 314.921 55.1687 314.544 54.1075C314.167 53.0463 314.008 51.9206 314.075 50.7969V30.6533H308.382V28.1003H314.075V21.3857H317.036V28.1258H326.876V30.6789H317.036V50.5331C316.919 52.1875 317.438 53.8243 318.487 55.1116C319.048 55.6566 319.718 56.0777 320.453 56.3475C321.188 56.6172 321.972 56.7297 322.754 56.6774C324.513 56.7479 326.231 56.1381 327.55 54.9754L328.83 57.0093Z" fill="white"/>
<path d="M50.8739 16.1865C46.5022 16.1865 42.2288 17.4792 38.5939 19.9012C34.959 22.3231 32.126 25.7655 30.453 29.793C28.7801 33.8205 28.3424 38.2523 29.1952 42.5279C30.0481 46.8035 32.1532 50.7309 35.2444 53.8135C38.3357 56.896 42.2741 58.9953 46.5617 59.8457C50.8494 60.6962 55.2936 60.2597 59.3325 58.5914C63.3713 56.9232 66.8234 54.0981 69.2521 50.4734C71.6809 46.8487 72.9772 42.5872 72.9772 38.2279C72.9772 35.3334 72.4055 32.4672 71.2947 29.793C70.1839 27.1188 68.5558 24.689 66.5033 22.6423C64.4508 20.5956 62.0142 18.972 59.3325 17.8643C56.6508 16.7566 53.7765 16.1865 50.8739 16.1865ZM56.6515 40.4405C56.6515 42.0475 56.0113 43.5887 54.8718 44.7251C53.7322 45.8614 52.1867 46.4998 50.5752 46.4998C48.9636 46.4998 47.4181 45.8614 46.2786 44.7251C45.1391 43.5887 44.4989 42.0475 44.4989 40.4405V36.7046C44.4989 35.0975 45.1391 33.5563 46.2786 32.42C47.4181 31.2837 48.9636 30.6453 50.5752 30.6453C52.1867 30.6453 53.7322 31.2837 54.8718 32.42C56.0113 33.5563 56.6515 35.0975 56.6515 36.7046V40.4405Z" fill="white"/>
<path d="M44.4991 59.6816V61.3155C44.4991 65.4752 42.842 69.4646 39.8923 72.4059C36.9427 75.3473 32.9421 76.9998 28.7707 76.9998V39.2571C28.6684 35.0381 29.6839 30.8667 31.715 27.1642C33.3305 24.3265 35.6043 21.916 38.346 20.1348C40.0074 21.5502 41.3633 23.2873 42.3314 25.2409C43.8497 28.4032 44.5927 31.8801 44.4991 35.385V59.6816Z" fill="white"/>
<path d="M31.715 27.1219C29.6767 30.8371 28.6609 35.024 28.7708 39.2574V36.7044C28.8085 35.5127 28.513 34.3341 27.9173 33.3003C27.3745 32.381 26.601 31.6184 25.6729 31.0877C24.7725 30.5788 23.755 30.312 22.7201 30.3133C21.6516 30.3048 20.5971 30.556 19.6478 31.0451C18.695 31.5344 17.9016 32.2842 17.3607 33.2067C16.7654 34.2406 16.4699 35.4192 16.5072 36.6108V59.6819H0.830078V15.5992C0.832341 11.4612 2.48233 7.49354 5.41732 4.56838C8.35231 1.64321 12.3321 -6.15113e-07 16.4816 0V19.684C18.0297 18.5896 19.7442 17.7506 21.5594 17.1991C23.3636 16.6379 25.2423 16.3511 27.1322 16.3481C30.3295 16.2713 33.488 17.0594 36.2723 18.6288C37.0024 19.0627 37.6959 19.5551 38.346 20.101C35.6053 21.8799 33.3316 24.2873 31.715 27.1219Z" fill="white"/>
<path d="M50.5752 39.9641C51.5101 39.968 52.4382 40.1232 53.3232 40.4237C53.7764 39.899 54.0691 39.2557 54.1665 38.57C54.2638 37.8844 54.1617 37.1853 53.8723 36.5559C53.5829 35.9264 53.1184 35.393 52.5339 35.019C51.9495 34.6451 51.2697 34.4463 50.5752 34.4463C49.8808 34.4463 49.201 34.6451 48.6165 35.019C48.0321 35.393 47.5676 35.9264 47.2782 36.5559C46.9888 37.1853 46.8867 37.8844 46.984 38.57C47.0814 39.2557 47.374 39.899 47.8273 40.4237C48.7121 40.1225 49.6403 39.9672 50.5752 39.9641Z" fill="white"/>
<path d="M22.4725 39.9641C23.4074 39.9672 24.3356 40.1225 25.2204 40.4237C25.6737 39.899 25.9663 39.2557 26.0636 38.57C26.161 37.8844 26.0589 37.1853 25.7695 36.5559C25.4801 35.9264 25.0156 35.393 24.4311 35.019C23.8467 34.6451 23.1669 34.4463 22.4725 34.4463C21.778 34.4463 21.0982 34.6451 20.5138 35.019C19.9293 35.393 19.4648 35.9264 19.1754 36.5559C18.886 37.1853 18.7839 37.8844 18.8813 38.57C18.9786 39.2557 19.2712 39.899 19.7245 40.4237C20.6096 40.1238 21.5376 39.9686 22.4725 39.9641Z" fill="white"/>
</svg>
