<svg width="281" height="85" viewBox="0 0 281 85" fill="none" xmlns="http://www.w3.org/2000/svg">
<path d="M129.376 49.7435H124.897L124.077 14.4045L116.759 35.6969L109.567 14.4045L108.621 49.7435H104.205L105.467 7.34946H110.703L116.759 25.3367L122.815 7.34946H128.115L129.376 49.7435Z" fill="white"/>
<path d="M162.409 49.7435H146.764V46.6926H152.441V18.8537H146.764V15.8028H162.409V18.8537H156.668V46.6926H162.409V49.7435Z" fill="white"/>
<path d="M203.706 49.7435H198.091L185.6 21.1418L185.474 21.2689L185.348 49.7435H181.121V15.8028H186.735L199.227 44.341L199.479 15.8028H203.706V49.7435Z" fill="white"/>
<path d="M243.425 49.4893L239.262 50.3791L235.981 39.2562H224.499L221.219 50.3791L217.055 49.4893L227.717 15.8028H232.764L243.425 49.4893ZM234.972 36.2054L230.303 20.3791L225.509 36.2054H234.972Z" fill="white"/>
<path d="M281 39.574C281 42.9215 280.012 45.4638 278.035 47.2011C276.058 48.896 273.514 49.7435 270.402 49.7435H256.838V46.6926H260.245V18.8537H256.838V15.8028H269.708C272.147 15.8028 274.313 16.5867 276.205 18.1545C278.098 19.7223 279.044 21.7986 279.044 24.3833C279.044 27.3918 277.551 29.574 274.565 30.9299C276.878 31.735 278.519 32.8367 279.486 34.235C280.495 35.6333 281 37.413 281 39.574ZM274.628 24.3833C274.628 22.3494 273.997 20.93 272.736 20.1249C271.516 19.2774 269.581 18.8537 266.932 18.8537H264.471V29.7859H268.257C272.504 29.7859 274.628 27.985 274.628 24.3833ZM276.584 39.5104C276.584 37.1376 275.911 35.4427 274.565 34.4257C273.261 33.3664 271.432 32.8367 269.077 32.8367H264.471V46.6926H270.212C272.189 46.6926 273.745 46.0994 274.881 44.913C276.016 43.7265 276.584 41.9257 276.584 39.5104Z" fill="white"/>
<path d="M110.571 84.7471H103.656V83.0614H106.165V67.6935H103.656V66.0078H110.571V67.6935H108.034V83.0614H110.571V84.7471Z" fill="white"/>
<path d="M128.742 67.6935H124.81V84.7471H122.942V67.6935H118.926V66.0078H128.742V67.6935Z" fill="white"/>
<path d="M162.016 79.7181C162.016 81.254 161.607 82.5183 160.789 83.511C159.99 84.5037 158.837 85 157.331 85C155.788 85 154.645 84.5505 153.901 83.6514C153.157 82.7337 152.711 81.46 152.563 79.8305L154.431 79.5777C154.58 80.7951 154.849 81.7129 155.24 82.331C155.63 82.9303 156.346 83.23 157.387 83.23C158.223 83.23 158.893 82.9491 159.395 82.3872C159.897 81.8253 160.148 80.9918 160.148 79.8867C160.148 78.7816 159.878 77.9481 159.339 77.3862C158.8 76.8243 157.88 76.1688 156.578 75.4196C155.295 74.6704 154.384 73.9867 153.845 73.3687C153.325 72.7506 153.065 71.8047 153.065 70.5311C153.065 69.2199 153.464 68.0962 154.264 67.1597C155.063 66.2231 156.104 65.7549 157.387 65.7549C158.614 65.7549 159.581 66.1482 160.287 66.9349C161.012 67.7028 161.505 68.7236 161.765 69.9972L159.952 70.2782C159.766 69.4541 159.478 68.7892 159.088 68.2835C158.697 67.7777 158.13 67.5249 157.387 67.5249C156.569 67.5249 155.955 67.8152 155.546 68.3958C155.137 68.9577 154.933 69.6695 154.933 70.5311C154.933 71.3177 155.1 71.9171 155.435 72.3291C155.788 72.7412 156.671 73.378 158.084 74.2396C159.497 75.0824 160.501 75.8691 161.096 76.5996C161.709 77.3301 162.016 78.3696 162.016 79.7181Z" fill="white"/>
<path d="M179.155 77.2458C179.155 79.8867 178.737 81.8346 177.9 83.0895C177.063 84.3257 175.762 84.9438 173.996 84.9438C172.211 84.9438 170.901 84.3351 170.064 83.1176C169.246 81.8814 168.837 79.9242 168.837 77.2458C168.837 75.1855 169.153 73.3874 169.785 71.8515C170.417 70.3157 171.821 69.5477 173.996 69.5477C176.245 69.5477 177.668 70.3344 178.263 71.9077C178.857 73.4623 179.155 75.2417 179.155 77.2458ZM177.203 77.2458C177.203 75.2042 177.026 73.6496 176.673 72.582C176.338 71.5144 175.446 70.9806 173.996 70.9806C172.564 70.9806 171.672 71.5706 171.319 72.7506C170.966 73.9118 170.789 75.4102 170.789 77.2458C170.789 79.4372 171.012 81.0386 171.458 82.05C171.905 83.0427 172.75 83.5391 173.996 83.5391C175.409 83.5391 176.292 82.9772 176.645 81.8534C177.017 80.7296 177.203 79.1937 177.203 77.2458Z" fill="white"/>
<path d="M196.573 84.7471H187.064V69.7444H188.932V83.3986H196.573V84.7471Z" fill="white"/>
<path d="M212.011 81.0948C212.011 82.2748 211.592 83.2113 210.756 83.9043C209.919 84.5973 208.813 84.9438 207.437 84.9438C206.043 84.9438 204.937 84.5973 204.119 83.9043C203.301 83.2113 202.892 82.3029 202.892 81.1791V69.7444H204.76V80.6453C204.76 81.5443 204.937 82.2561 205.29 82.7805C205.662 83.2862 206.378 83.5391 207.437 83.5391C208.478 83.5391 209.185 83.2768 209.557 82.7524C209.947 82.2092 210.142 81.5068 210.142 80.6453V69.7444H212.011V81.0948Z" fill="white"/>
<path d="M229.066 71.0929H225.134V84.7471H223.266V71.0929H219.25V69.7444H229.066V71.0929Z" fill="white"/>
<path d="M244.336 84.7471H237.421V83.3986H239.93V71.0929H237.421V69.7444H244.336V71.0929H241.799V83.3986H244.336V84.7471Z" fill="white"/>
<path d="M262.758 77.2458C262.758 79.8867 262.34 81.8346 261.503 83.0895C260.667 84.3257 259.365 84.9438 257.599 84.9438C255.815 84.9438 254.504 84.3351 253.667 83.1176C252.849 81.8814 252.44 79.9242 252.44 77.2458C252.44 75.1855 252.756 73.3874 253.388 71.8515C254.021 70.3157 255.424 69.5477 257.599 69.5477C259.849 69.5477 261.271 70.3344 261.866 71.9077C262.461 73.4623 262.758 75.2417 262.758 77.2458ZM260.806 77.2458C260.806 75.2042 260.63 73.6496 260.276 72.582C259.942 71.5144 259.049 70.9806 257.599 70.9806C256.168 70.9806 255.275 71.5706 254.922 72.7506C254.569 73.9118 254.392 75.4102 254.392 77.2458C254.392 79.4372 254.615 81.0386 255.062 82.05C255.508 83.0427 256.354 83.5391 257.599 83.5391C259.012 83.5391 259.895 82.9772 260.248 81.8534C260.62 80.7296 260.806 79.1937 260.806 77.2458Z" fill="white"/>
<path d="M279.311 84.7471H276.83L271.308 72.1044L271.252 72.1606L271.197 84.7471H269.328V69.7444H271.81L277.332 82.3591L277.443 69.7444H279.311V84.7471Z" fill="white"/>
<path d="M46.9074 0.0435525C46.6921 0.0208828 46.4745 0.0440181 46.2686 0.111457C46.0627 0.178896 45.8732 0.289137 45.7123 0.435042C45.5514 0.580948 45.4227 0.759265 45.3346 0.95845C45.2464 1.15764 45.2008 1.37325 45.2006 1.59133V15.6573H39.9581V1.79209C39.9583 1.54262 39.9067 1.29586 39.8067 1.06763C39.7067 0.839404 39.5605 0.63474 39.3774 0.466763C39.1943 0.298785 38.9784 0.1712 38.7435 0.0921877C38.5086 0.013175 38.2599 -0.0155243 38.0134 0.00793401C29.8165 0.846837 22.0415 4.07961 15.6436 9.30905C9.24562 14.5385 4.50347 21.5368 1.99978 29.4441C-0.503906 37.3514 -0.660072 45.8233 1.55047 53.8188C3.76101 61.8143 8.24197 68.9851 14.4428 74.4502C15.2014 75.0298 17.6571 76.3639 23.205 75.0687C23.205 75.0687 24.2272 74.7449 23.8736 75.4281C23.8736 75.4281 22.1346 76.8528 20.2125 78.1059L19.7978 78.4621C24.0229 81.1468 28.6891 83.0514 33.5776 84.0866C34.348 84.2493 35.1448 84.2369 35.9098 84.0504C36.6749 83.8638 37.389 83.5076 38.0002 83.0079C38.6114 82.5083 39.1042 81.8776 39.4429 81.1618C39.7816 80.446 39.9576 79.6631 39.9581 78.8701V32.1098C41.7067 30.9743 43.4563 30.9743 45.207 32.1098V83.1929C45.2077 83.41 45.2535 83.6245 45.3415 83.8227C45.4295 84.0208 45.5577 84.1982 45.7179 84.3434C45.8781 84.4886 46.0667 84.5984 46.2716 84.6657C46.4765 84.733 46.6931 84.7564 46.9074 84.7342C57.2599 83.5862 66.8278 78.6303 73.7777 70.8161C80.7276 63.0019 84.5708 52.8791 84.5708 42.3873C84.5708 31.8954 80.7276 21.7726 73.7777 13.9584C66.8278 6.14425 57.2599 1.18833 46.9074 0.0403163V0.0435525ZM24.2079 59.4776C24.2076 59.5942 24.1726 59.708 24.1074 59.8044C24.0422 59.9008 23.9498 59.9752 23.8421 60.0181C23.7344 60.061 23.6165 60.0704 23.5035 60.045C23.3905 60.0197 23.2876 59.9607 23.2082 59.8758C8.26485 44.1131 19.5728 28.59 23.2082 24.3935C23.2848 24.3034 23.387 24.2391 23.501 24.2093C23.615 24.1795 23.7353 24.1857 23.8457 24.227C23.9561 24.2684 24.0513 24.3428 24.1183 24.4403C24.1854 24.5378 24.2211 24.6537 24.2207 24.7724L24.2079 59.4776ZM61.9537 59.8758C61.8743 59.9607 61.7714 60.0197 61.6584 60.045C61.5454 60.0704 61.4275 60.061 61.3198 60.0181C61.2121 59.9752 61.1197 59.9008 61.0545 59.8044C60.9893 59.708 60.9543 59.5942 60.954 59.4776V24.7789C60.9536 24.6602 60.9893 24.5443 61.0564 24.4468C61.1235 24.3493 61.2186 24.2748 61.329 24.2335C61.4394 24.1922 61.5598 24.186 61.6738 24.2158C61.7878 24.2456 61.89 24.3099 61.9665 24.4C65.5891 28.5965 76.897 44.1196 61.9537 59.8823V59.8758Z" fill="white"/>
</svg>
